<?xml version="1.0" encoding="UTF-8" standalone="no"?>
<!-- Created with Inkscape (http://www.inkscape.org/) -->

<svg
   width="210mm"
   height="297mm"
   viewBox="0 0 210 297"
   version="1.1"
   id="svg5"
   inkscape:version="1.1.1 (3bf5ae0d25, 2021-09-20)"
   sodipodi:docname="logo.svg"
   xmlns:inkscape="http://www.inkscape.org/namespaces/inkscape"
   xmlns:sodipodi="http://sodipodi.sourceforge.net/DTD/sodipodi-0.dtd"
   xmlns="http://www.w3.org/2000/svg"
   xmlns:svg="http://www.w3.org/2000/svg">
  <sodipodi:namedview
     id="namedview7"
     pagecolor="#ffffff"
     bordercolor="#666666"
     borderopacity="1.0"
     inkscape:pageshadow="2"
     inkscape:pageopacity="0.0"
     inkscape:pagecheckerboard="0"
     inkscape:document-units="mm"
     showgrid="false"
     inkscape:zoom="1.0482005"
     inkscape:cx="272.37155"
     inkscape:cy="372.54323"
     inkscape:window-width="1920"
     inkscape:window-height="1017"
     inkscape:window-x="-8"
     inkscape:window-y="-8"
     inkscape:window-maximized="1"
     inkscape:current-layer="layer1"
     showguides="true"
     inkscape:guide-bbox="true" />
  <defs
     id="defs2">
    <inkscape:path-effect
       effect="skeletal"
       id="path-effect1816"
       is_visible="true"
       lpeversion="1"
       pattern="m 49.586666,55.036677 c 0,-2.75566 2.236478,-4.992138 4.992139,-4.992138 2.75566,0 4.992138,2.236478 4.992138,4.992138 0,2.75566 -2.236478,4.992138 -4.992138,4.992138 -2.755661,0 -4.992139,-2.236478 -4.992139,-4.992138 z"
       copytype="single_stretched"
       prop_scale="0.23516822"
       scale_y_rel="false"
       spacing="0"
       normal_offset="0"
       tang_offset="0"
       prop_units="false"
       vertical_pattern="false"
       hide_knot="false"
       fuse_tolerance="0" />
    <inkscape:path-effect
       effect="skeletal"
       id="path-effect9816"
       is_visible="true"
       lpeversion="1"
       pattern="m 6.4973293,11.01497 c 0,-2.7556604 2.2364779,-4.9921383 4.9921387,-4.9921383 2.75566,0 4.992138,2.2364779 4.992138,4.9921383 0,2.75566 -2.236478,4.992138 -4.992138,4.992138 -2.7556608,0 -4.9921387,-2.236478 -4.9921387,-4.992138 z"
       copytype="single_stretched"
       prop_scale="0.37841029"
       scale_y_rel="false"
       spacing="0"
       normal_offset="0"
       tang_offset="0"
       prop_units="false"
       vertical_pattern="false"
       hide_knot="false"
       fuse_tolerance="0" />
    <inkscape:path-effect
       effect="powerstroke"
       id="path-effect8344"
       is_visible="true"
       lpeversion="1"
       offset_points="1,2.45775"
       not_jump="false"
       sort_points="true"
       interpolator_type="CubicBezierJohan"
       interpolator_beta="0.2"
       start_linecap_type="zerowidth"
       linejoin_type="extrp_arc"
       miter_limit="4"
       scale_width="1"
       end_linecap_type="zerowidth" />
    <inkscape:path-effect
       effect="powerstroke"
       id="path-effect8340"
       is_visible="true"
       lpeversion="1"
       offset_points="1,2.45775"
       not_jump="false"
       sort_points="true"
       interpolator_type="CubicBezierJohan"
       interpolator_beta="0.2"
       start_linecap_type="zerowidth"
       linejoin_type="extrp_arc"
       miter_limit="4"
       scale_width="1"
       end_linecap_type="zerowidth" />
    <inkscape:path-effect
       effect="skeletal"
       id="path-effect7454"
       is_visible="true"
       lpeversion="1"
       pattern="M 0,4.9921382 C 0,2.2364779 2.2364779,0 4.9921382,0 c 2.7556604,0 4.9921383,2.2364779 4.9921383,4.9921382 0,2.7556604 -2.2364779,4.9921383 -4.9921383,4.9921383 C 2.2364779,9.9842765 0,7.7477986 0,4.9921382 Z"
       copytype="single_stretched"
       prop_scale="0.37038503"
       scale_y_rel="false"
       spacing="0"
       normal_offset="0"
       tang_offset="0"
       prop_units="false"
       vertical_pattern="false"
       hide_knot="false"
       fuse_tolerance="0" />
    <inkscape:path-effect
       effect="powerstroke"
       id="path-effect6110"
       is_visible="true"
       lpeversion="1"
       offset_points="0.99976025,2.4577491"
       not_jump="false"
       sort_points="true"
       interpolator_type="CubicBezierJohan"
       interpolator_beta="0.2"
       start_linecap_type="zerowidth"
       linejoin_type="extrp_arc"
       miter_limit="4"
       scale_width="1"
       end_linecap_type="zerowidth" />
    <inkscape:path-effect
       effect="skeletal"
       id="path-effect5845"
       is_visible="true"
       lpeversion="1"
       pattern="M 0,4.9921382 C 0,2.2364779 2.2364779,0 4.9921382,0 c 2.7556604,0 4.9921383,2.2364779 4.9921383,4.9921382 0,2.7556604 -2.2364779,4.9921383 -4.9921383,4.9921383 C 2.2364779,9.9842765 0,7.7477986 0,4.9921382 Z"
       copytype="single_stretched"
       prop_scale="0.62337005"
       scale_y_rel="false"
       spacing="0"
       normal_offset="0"
       tang_offset="0"
       prop_units="false"
       vertical_pattern="false"
       hide_knot="false"
       fuse_tolerance="0" />
    <inkscape:path-effect
       effect="skeletal"
       id="path-effect2027"
       is_visible="true"
       lpeversion="1"
       pattern="M 0,4.9921382 C 0,2.2364779 2.2364779,0 4.9921382,0 c 2.7556604,0 4.9921383,2.2364779 4.9921383,4.9921382 0,2.7556604 -2.2364779,4.9921383 -4.9921383,4.9921383 C 2.2364779,9.9842765 0,7.7477986 0,4.9921382 Z"
       copytype="single_stretched"
       prop_scale="1"
       scale_y_rel="false"
       spacing="0"
       normal_offset="0"
       tang_offset="0"
       prop_units="false"
       vertical_pattern="false"
       hide_knot="false"
       fuse_tolerance="0" />
    <inkscape:path-effect
       effect="skeletal"
       id="path-effect876"
       is_visible="true"
       lpeversion="1"
       pattern="M 0,4.9921382 C 0,2.2364779 2.2364779,0 4.9921382,0 c 2.7556604,0 4.9921383,2.2364779 4.9921383,4.9921382 0,2.7556604 -2.2364779,4.9921383 -4.9921383,4.9921383 C 2.2364779,9.9842765 0,7.7477986 0,4.9921382 Z"
       copytype="single_stretched"
       prop_scale="1"
       scale_y_rel="false"
       spacing="0"
       normal_offset="0"
       tang_offset="0"
       prop_units="false"
       vertical_pattern="false"
       hide_knot="false"
       fuse_tolerance="0" />
  </defs>
  <g
     inkscape:label="Réteg 1"
     inkscape:groupmode="layer"
     id="layer1">
    <path
       style="opacity:1;fill:#000080;stroke:#ffeeaa;stroke-width:0.264583px;stroke-linecap:butt;stroke-linejoin:miter;stroke-opacity:1;fill-opacity:0.12941177"
       d="m 173.38424,104.56801 c 0.22094,-0.41035 3.54714,0.24677 5.82795,4.21014 0.885,1.57663 1.36294,3.59711 1.05975,5.74261 -0.0201,0.14228 -0.0435,0.28366 -0.0701,0.42401 -0.74315,3.69901 -3.29113,6.0375 -5.28452,7.11927 -2.0611,1.11852 -3.4859,1.02477 -3.55845,0.78044 -0.0905,-0.30476 1.11293,-0.86747 2.64383,-2.14711 1.50113,-1.25477 3.4132,-3.37114 3.8925,-6.18528 0.0196,-0.10605 0.0371,-0.21298 0.0524,-0.3207 0.23007,-1.61759 -0.0542,-3.18553 -0.62082,-4.45036 -1.41993,-3.28286 -4.16355,-4.76267 -3.94261,-5.17302 z"
       id="path5843-9-2"
       inkscape:path-effect="#path-effect1816"
       inkscape:original-d="m 173.38424,104.56801 c 9.59244,5.16467 6.18749,15.83762 -2.02534,18.27647"
       sodipodi:nodetypes="cc"
       inkscape:export-filename="E:\Egyetem\Smart-kitchen\haztartas\app\src\main\res\drawable\logo.png"
       inkscape:export-xdpi="100"
       inkscape:export-ydpi="100" />
    <path
       style="opacity:1;fill:#000080;stroke:none;stroke-width:0.264583px;stroke-linecap:butt;stroke-linejoin:miter;stroke-opacity:1;fill-opacity:0.13"
       d="m 102.40653,62.955859 c -0.14573,-0.748226 5.82416,-3.163147 15.04742,-3.010977 3.37569,0.04633 7.30812,0.568287 11.10528,2.203563 0.49021,0.21111 0.97148,0.437926 1.44328,0.680704 3.93372,2.051251 6.72684,5.204193 8.3334,8.458096 3.75366,7.754675 2.13584,13.647268 1.42431,13.655006 -0.71153,0.0077 -0.56152,-5.861284 -4.33644,-12.086763 -1.52853,-2.568705 -3.94627,-5.040299 -7.15159,-6.674508 -0.39297,-0.203642 -0.79599,-0.395001 -1.20897,-0.574636 -3.1757,-1.381373 -6.68819,-1.952084 -9.78144,-2.229714 -8.51575,-0.737771 -14.72952,0.327455 -14.87525,-0.420771 z"
       id="path5843-9"
       inkscape:path-effect="#path-effect9816"
       inkscape:original-d="m 102.40653,62.955859 c 21.70518,-4.227487 37.12577,1.029907 37.35369,21.986384"
       sodipodi:nodetypes="cc"
       inkscape:export-filename="E:\Egyetem\Smart-kitchen\haztartas\app\src\main\res\drawable\logo.png"
       inkscape:export-xdpi="100"
       inkscape:export-ydpi="100" />
    <path
       style="opacity:1;fill:#000080;stroke-width:0.0860107px;fill-opacity:0.12941177"
       d="m 55.639267,110.46872 c 1.694495,-12.414546 9.934599,-18.076381 14.022693,-20.136511 -0.09496,-3.382403 0.100688,-0.08972 -0.09496,-3.382403 -9.23595,3.778803 -15.177898,14.661644 -13.927737,23.518914 z"
       id="path6108-0"
       sodipodi:nodetypes="cccc"
       inkscape:export-filename="E:\Egyetem\Smart-kitchen\haztartas\app\src\main\res\drawable\logo.png"
       inkscape:export-xdpi="100"
       inkscape:export-ydpi="100" />
    <path
       style="opacity:1;fill:#000080;stroke-width:0.0856666px;fill-opacity:0.12941177"
       d="m 86.503846,137.60014 c 1.592231,0.96686 5.216512,3.92861 6.818419,9.8789 2.983597,-1.14155 25.693025,-2.00206 36.865165,2.97464 -6.89028,-3.08747 -35.699804,-2.2031 -39.535952,-0.33465 -0.09362,-4.95314 -1.701799,-8.36798 -4.147632,-12.51889 z"
       id="path1219-9"
       sodipodi:nodetypes="ccccc"
       inkscape:export-filename="E:\Egyetem\Smart-kitchen\haztartas\app\src\main\res\drawable\logo.png"
       inkscape:export-xdpi="100"
       inkscape:export-ydpi="100" />
    <path
       style="opacity:1;fill:none;fill-opacity:1;stroke:#000080;stroke-width:2.765;stroke-linecap:round;stroke-linejoin:round;stroke-miterlimit:4;stroke-dasharray:none;stroke-opacity:1"
       d="m 150.28147,79.259886 c 8.03045,-0.142004 15.91409,6.870983 13.88291,17.22744"
       id="path2607-4"
       sodipodi:nodetypes="cc"
       inkscape:export-filename="E:\Egyetem\Smart-kitchen\haztartas\app\src\main\res\drawable\logo.png"
       inkscape:export-xdpi="100"
       inkscape:export-ydpi="100" />
    <path
       style="opacity:1;fill:#000080;stroke-width:0.264583px"
       d="m 78.690913,134.22259 c 4.917639,2.98618 10.047481,8.27479 9.620257,20.0373 9.214897,-3.52571 31.94537,-6.0456 58.59537,1.60744 -17.42198,-3.4719 -55.133944,1.32674 -66.981965,7.0975 0.951172,-12.40381 1.772479,-13.30362 -1.233662,-28.74224 z"
       id="path1219"
       sodipodi:nodetypes="ccccc"
       inkscape:export-filename="E:\Egyetem\Smart-kitchen\haztartas\app\src\main\res\drawable\logo.png"
       inkscape:export-xdpi="100"
       inkscape:export-ydpi="100" />
    <path
       style="opacity:1;fill:#000080;stroke-width:0.264583px"
       d="m 96.044562,126.96561 c 28.689438,-4.08146 44.828148,-0.52985 61.317578,7.21346 0.22592,6.49429 0.16506,11.80541 -0.0434,19.41651 -3.48936,-6.27051 -3.9333,-8.73576 -4.42781,-15.89416 -7.1231,-6.62838 -44.17499,-8.12213 -56.846358,-10.73581 z"
       id="path2025"
       sodipodi:nodetypes="ccccc"
       inkscape:export-filename="E:\Egyetem\Smart-kitchen\haztartas\app\src\main\res\drawable\logo.png"
       inkscape:export-xdpi="100"
       inkscape:export-ydpi="100" />
    <path
       style="opacity:1;fill:#000080;stroke:none;stroke-width:0.264583px;stroke-linecap:butt;stroke-linejoin:miter;stroke-opacity:1"
       d="M 75.472599,100.84048 C 74.61294,101.0722 69.8832,93.330846 72.471256,79.984756 c 10e-7,0 10e-7,-4e-6 10e-7,-4e-6 1.033044,-5.173471 3.62272,-10.890236 8.337726,-15.736086 3.924793,-4.008406 8.962787,-7.217712 14.771552,-9.362331 3.920163,-1.456128 8.110555,-2.440537 12.470605,-2.90122 1.65337,-0.174695 3.29907,-0.270646 4.92875,-0.293452 5.91625,-0.09616 11.60099,0.776526 16.79264,2.586049 5.17114,1.772311 9.6644,4.558754 13.00597,8.266207 3.76063,4.231564 5.27412,9.323941 5.24946,13.70895 -0.0393,3.204507 -0.78098,6.026155 -1.62426,8.221746 -2.3166,6.039236 -5.04544,8.595805 -5.55517,8.288539 -0.50974,-0.307266 1.23991,-3.537278 2.44347,-9.222778 0.43302,-2.053243 0.76669,-4.569924 0.51547,-7.131972 -0.31179,-3.41378 -1.85241,-7.258739 -4.87398,-10.258421 -2.75075,-2.788296 -6.5396,-4.815368 -11.03157,-6.26886 -4.53107,-1.436268 -9.52924,-2.085685 -14.81128,-1.982058 -1.45281,0.03219 -2.91737,0.123261 -4.38585,0.278117 -3.87194,0.408307 -7.57828,1.239381 -11.037392,2.460715 -5.101231,1.813887 -9.499952,4.379786 -12.92201,7.60744 -4.083646,3.820157 -6.610642,8.481023 -7.879089,12.804605 0,0 0,3e-6 0,3e-6 -3.373452,11.251487 -0.534041,19.558815 -1.3937,19.790535 z"
       id="path5843"
       inkscape:path-effect="#path-effect5845"
       inkscape:original-d="M 75.472599,100.84048 C 58.6249,38.337451 170.69543,43.248977 140.84853,92.763146"
       sodipodi:nodetypes="cc"
       inkscape:export-filename="E:\Egyetem\Smart-kitchen\haztartas\app\src\main\res\drawable\logo.png"
       inkscape:export-xdpi="100"
       inkscape:export-ydpi="100" />
    <path
       style="opacity:1;fill:#000080;stroke-width:0.264583px"
       d="M 67.900098,128.22769 C 38.687997,115.46323 57.683775,82.698813 73.433107,84.871805 c -6.24e-4,0 0.01954,-2.457746 0.02016,-2.457746 6.21e-4,0 -0.0207,-2.457752 -0.02132,-2.457752 C 53.615074,78.25534 31.048798,117.37405 67.9001,128.22769 Z"
       id="path6108"
       sodipodi:nodetypes="ccsccc"
       inkscape:export-filename="E:\Egyetem\Smart-kitchen\haztartas\app\src\main\res\drawable\logo.png"
       inkscape:export-xdpi="100"
       inkscape:export-ydpi="100" />
    <path
       style="opacity:1;fill:#000080;stroke:none;stroke-width:0.264583px;stroke-linecap:butt;stroke-linejoin:miter;stroke-opacity:1"
       d="m 165.63461,126.1893 c 0.0688,-0.51454 3.67097,-0.004 8.29202,-1.82057 0,0 1e-5,0 1e-5,0 1.74389,-0.68014 3.61673,-1.7825 5.09164,-3.45781 2.17536,-2.42162 3.528,-6.23153 2.9694,-10.14346 -0.0317,-0.21703 -0.069,-0.43393 -0.11203,-0.65022 -0.30602,-1.53701 -0.88615,-2.96485 -1.70282,-4.16408 -1.01362,-1.50445 -2.41603,-2.66885 -3.91086,-3.39303 -2.03432,-1.01286 -4.38976,-1.24519 -6.38405,-1.18746 -5.78491,0.178 -9.52462,2.11622 -9.77637,1.61351 -0.25175,-0.5027 2.91587,-3.42779 9.51377,-4.411812 2.31386,-0.347137 5.18409,-0.283468 8.03225,0.884591 2.08956,0.877201 4.05019,2.366201 5.51042,4.417151 1.14525,1.62043 1.95012,3.50512 2.34774,5.52251 0.0559,0.28374 0.10336,0.56799 0.14245,0.85225 0.72089,5.15448 -1.22357,9.91883 -4.25413,12.93435 -2.08101,2.03908 -4.51976,3.17536 -6.67935,3.71246 0,0 0,0 0,0 -5.71067,1.40295 -9.1489,-0.19384 -9.08009,-0.70838 z"
       id="path7452"
       inkscape:path-effect="#path-effect7454"
       inkscape:original-d="m 165.63461,126.1893 c 26.95077,3.60436 23.38243,-37.683681 -5.53305,-23.20312"
       sodipodi:nodetypes="cc"
       inkscape:export-filename="E:\Egyetem\Smart-kitchen\haztartas\app\src\main\res\drawable\logo.png"
       inkscape:export-xdpi="100"
       inkscape:export-ydpi="100" />
    <path
       style="opacity:1;fill:#000080;stroke-width:0.264583px"
       d="m 160.8155,102.80769 c 8.69237,-2.851094 8.55727,-2.905746 9.55131,-4.723816 4.67391,-14.918672 -8.535,-27.90047 -23.25008,-25.127896 l 0.52081,2.964952 c 21.34536,-1.722446 22.53606,18.327593 19.22418,23.160874 z"
       id="path8342"
       sodipodi:nodetypes="cccccc"
       inkscape:export-filename="E:\Egyetem\Smart-kitchen\haztartas\app\src\main\res\drawable\logo.png"
       inkscape:export-xdpi="100"
       inkscape:export-ydpi="100" />
    <path
       style="opacity:1;fill:none;fill-opacity:1;stroke:#000080;stroke-width:2.765;stroke-linecap:round;stroke-linejoin:round;stroke-miterlimit:4;stroke-dasharray:none;stroke-opacity:1"
       d="m 149.8792,84.931112 c 4.96731,0.40418 9.10878,4.125912 8.62786,10.222575"
       id="path2607"
       sodipodi:nodetypes="cc"
       inkscape:export-filename="E:\Egyetem\Smart-kitchen\haztartas\app\src\main\res\drawable\logo.png"
       inkscape:export-xdpi="100"
       inkscape:export-ydpi="100" />
    <ellipse
       style="opacity:1;fill:#000080;fill-opacity:1;stroke:none;stroke-width:2.92496;stroke-linecap:round;stroke-linejoin:round;stroke-miterlimit:4;stroke-dasharray:none;stroke-opacity:1"
       id="path6775"
       ry="2.749563"
       rx="2.8557692"
       cy="93.353302"
       cx="150.39641"
       inkscape:export-filename="E:\Egyetem\Smart-kitchen\haztartas\app\src\main\res\drawable\logo.png"
       inkscape:export-xdpi="100"
       inkscape:export-ydpi="100" />
  </g>
</svg>
